<?xml version="1.0" encoding="utf-8"?>
<!-- Generator: Adobe Illustrator 21.0.0, SVG Export Plug-In . SVG Version: 6.00 Build 0)  -->
<svg version="1.1" id="Layer_1" xmlns="http://www.w3.org/2000/svg" xmlns:xlink="http://www.w3.org/1999/xlink" x="0px" y="0px"
	 viewBox="0 0 512 512" style="enable-background:new 0 0 512 512;" xml:space="preserve">
<style type="text/css">
	.st0{fill:#E06B19;}
	.st1{clip-path:url(#SVGID_2_);}
</style>
<title>iconos_WEB_traftec</title>
<circle class="st0" cx="84.9" cy="207.6" r="6.6"/>
<circle class="st0" cx="123.2" cy="207.6" r="6.6"/>
<circle class="st0" cx="224.4" cy="242.8" r="10.4"/>
<circle class="st0" cx="284.4" cy="242.8" r="10.4"/>
<path class="st0" d="M255.4,301c-15.6,0-28.2-12.6-28.2-28.2c0.1-2.5,2.2-4.4,4.7-4.3c2.3,0.1,4.2,2,4.3,4.3
	c0,10.6,8.6,19.1,19.1,19.1c10.6,0,19.1-8.6,19.1-19.1c0.1-2.5,2.2-4.4,4.7-4.3c2.3,0.1,4.2,2,4.3,4.3
	C283.6,288.4,271,301,255.4,301z"/>
<path class="st0" d="M232.4,214.3c-7.7-1.6-15.6,0.8-21.2,6.3c-2.9,2.9,1.6,7.4,4.5,4.5c3.9-3.9,9.5-5.7,15-4.7
	C234.7,221.2,236.4,215.1,232.4,214.3z"/>
<path class="st0" d="M276,214.3c7.7-1.6,15.6,0.8,21.2,6.3c2.9,2.9-1.6,7.4-4.5,4.5c-3.9-3.9-9.5-5.7-15-4.7
	C273.7,221.2,272,215.1,276,214.3z"/>
<path class="st0" d="M429.3,266.8c16.7-8.7,27.2-26,27.2-44.8v-30.2c0-27.9-22.6-50.5-50.5-50.5c-27.9,0-50.5,22.6-50.5,50.5V222
	c0.1,19.1,10.9,36.6,28,45.2c-25.7,3.1-46.2,21.4-52.8,45.3c-3.2-2.8-6.6-5.3-10.2-7.6c8.7-13,13.4-28.3,13.3-44v-47.6
	c0.5-43.9-34.7-79.9-78.6-80.4c-43.9-0.5-79.9,34.7-80.4,78.6c0,0.6,0,1.2,0,1.8v47.6c0,15.7,4.7,31,13.4,44
	c-2.4,1.5-4.7,3.1-6.9,4.8c-8.2-24.6-31-42-57.5-42.9c16.7-8.7,27.2-26,27.2-44.8v-30.2c0-27.9-22.6-50.5-50.5-50.5
	c-27.9,0-50.5,22.6-50.5,50.5V222c0,19.2,10.8,36.7,28,45.2c-31.4,3.8-55.1,30.4-55.1,62.1h14.9c0-24.4,18.5-44.9,42.8-47.4
	c-0.1,0.6-0.1,1.3-0.1,1.9c0,11.7,9.4,21.1,21.1,21.1s21.1-9.4,21.1-21.1c0-0.7,0-1.5-0.1-2.2c23.3,0.4,42.7,17.5,46.3,40.1
	c-11.5,14-18,31.7-18.1,50.4H166c0-22.8,12.1-44,31.8-55.6c8.4,8.6,18.6,15.2,29.9,19.2c-3.9,14.8,4.9,29.9,19.7,33.7
	s29.9-4.9,33.7-19.7c1.2-4.6,1.2-9.5,0-14.1c11.3-4.1,21.6-10.6,30-19.2c19.6,11.6,31.7,32.7,31.7,55.6h14.8
	c0-16.5-5.2-32.3-14.4-45.4c1.3-23.3,19.3-42.4,42.8-44.8c-0.1,0.6-0.1,1.3-0.1,1.9c0,11.7,9.5,21.1,21.1,21.1
	c11.7,0,21.1-9.5,21.1-21.1c0-0.7,0-1.4-0.1-2.1c26,0.4,46.9,21.6,46.9,47.7h15C489.9,295.5,463.1,267.8,429.3,266.8z M104.2,295.2
	c-0.7,0.1-1.5,0.2-2.2,0.2l0,0c-6.4,0.1-11.6-5.1-11.7-11.5c0-0.8,0.1-1.6,0.2-2.3h23C114.7,287.9,110.5,294,104.2,295.2z
	 M100.8,263c-4.4,0-8.8-0.6-13-2c-16.8-5.6-28.1-21.3-28.1-39v-30.2c0-22.7,18.4-41,41-41c22.7,0,41,18.4,41,41V222
	C141.8,244.6,123.5,263,100.8,263z M269.7,342.6c0,8.4-6.8,15.3-15.2,15.3c-8.4,0-15.3-6.8-15.3-15.2c0-1.3,0.2-2.6,0.5-3.8
	c9.8,1.9,19.8,1.9,29.6,0C269.6,340.1,269.7,341.4,269.7,342.6L269.7,342.6z M319,213.2l0,47.6c0,13.3-4.1,26.3-11.8,37.2h-0.1
	l-0.1,0.2c-20.7,29.1-61,35.9-90.1,15.2c-17.1-12.1-27.2-31.7-27.2-52.7v-47.6c-0.4-35.7,28.1-65,63.8-65.4
	c35.7-0.4,65,28.1,65.4,63.8C319,212.1,319,212.7,319,213.2z M409.5,295.2c-0.8,0.2-1.5,0.2-2.3,0.2c-6.4,0.1-11.6-5.1-11.7-11.5
	c0-0.8,0.1-1.6,0.2-2.4h22.9C419.9,287.9,415.8,294,409.5,295.2z M406,263c-22.7,0-41-18.4-41-41v-30.2c0-22.7,18.4-41,41-41
	c22.7,0,41,18.4,41,41V222C447.1,244.7,428.7,263,406,263z"/>
<path class="st0" d="M104.6,247.2c-12.6,0-23.2-9.3-25-21.8l-0.4-2.9H130l-0.4,2.9C127.8,237.9,117.2,247.2,104.6,247.2z
	 M85.2,227.6c3.1,10.7,14.3,16.8,25,13.7c6.6-1.9,11.8-7.1,13.7-13.7H85.2z"/>
<g>
	<defs>
		<path id="SVGID_1_" d="M123.9,225c-1.7,12.4-13.1,21.2-25.5,19.5c-10.2-1.4-18.1-9.3-19.5-19.5H123.9z"/>
	</defs>
	<clipPath id="SVGID_2_">
		<use xlink:href="#SVGID_1_"  style="overflow:visible;"/>
	</clipPath>
	<g class="st1">
		<g>
			<ellipse class="st0" cx="97.8" cy="245" rx="13.6" ry="11.8"/>
		</g>
	</g>
</g>
<path class="st0" d="M401.7,244.6c-9.3,0-16.9-7.6-16.9-16.9c0-1.5,1.2-2.7,2.7-2.7s2.7,1.2,2.7,2.7l0,0c0,6.3,5.1,11.4,11.5,11.4
	c6.3,0,11.4-5.1,11.4-11.4c0-1.5,1.2-2.7,2.7-2.7s2.7,1.2,2.7,2.7l0,0C418.6,237.1,411,244.6,401.7,244.6z"/>
<circle class="st0" cx="382.6" cy="207.6" r="6.6"/>
<circle class="st0" cx="420.9" cy="207.6" r="6.6"/>
<path class="st0" d="M93.3,186.1c-5.9,0.1-11.6,2.2-16.2,5.9c-3.5,2.7,1.4,7.6,4.9,4.9c3.3-2.5,7.2-3.9,11.3-3.9
	C97.7,192.9,97.7,186.1,93.3,186.1z"/>
<path class="st0" d="M129.4,190.1c-3.4-2.8-7.6-4.4-12-4.6c-4.4-0.2-4.4,6.7,0,6.9c2.6,0.1,5.1,1,7.2,2.6c1.4,1.3,3.5,1.3,4.9,0
	C130.5,193.7,130.8,191.2,129.4,190.1z"/>
<path class="st0" d="M387.2,185.5l-11,3.5c-4.2,1.3-2.4,8,1.8,6.6l11-3.5C393.2,190.8,391.4,184.2,387.2,185.5z"/>
<path class="st0" d="M427.7,189.4c-4.1-2.2-8.6-3.6-13.2-4.4c-1.8-0.4-3.7,0.6-4.2,2.4c-0.5,1.6,0.6,3.9,2.4,4.2
	c4,0.6,8,1.8,11.6,3.7C428.2,197.4,431.7,191.5,427.7,189.4z"/>
</svg>
