<?xml version="1.0" encoding="utf-8"?>
<!-- Generator: Adobe Illustrator 21.0.0, SVG Export Plug-In . SVG Version: 6.00 Build 0)  -->
<svg version="1.1" id="Layer_1" xmlns="http://www.w3.org/2000/svg" xmlns:xlink="http://www.w3.org/1999/xlink" x="0px" y="0px"
	 viewBox="0 0 512 512" style="enable-background:new 0 0 512 512;" xml:space="preserve">
<style type="text/css">
	.st0{fill:#E06B19;}
</style>
<title>iconos_WEB_traftec</title>
<circle class="st0" cx="224.4" cy="261.4" r="10.8"/>
<circle class="st0" cx="286.7" cy="261.4" r="10.8"/>
<g>
	<g>
		<path class="st0" d="M257,307.5c-6,0-11.6-2.3-16-6.4c-4.5-4.3-7-10-7.1-16.2c0-0.3,0-0.7,0-1.1c0-2.1,1.7-3.7,3.8-3.6
			c2.1,0,3.7,1.8,3.6,3.8c0,0.2,0,0.5,0,0.7c0.1,4.2,1.8,8.1,4.8,11c3,2.9,7,4.4,11.2,4.3c8.6-0.2,15.5-7.4,15.3-16
			c0-2.1,1.6-3.8,3.6-3.8c0,0,0.1,0,0.1,0c2,0,3.7,1.6,3.7,3.6c0.1,6.2-2.1,12-6.4,16.5c-4.3,4.5-10,7-16.2,7.1
			C257.3,307.4,257.1,307.5,257,307.5z"/>
	</g>
</g>
<path class="st0" d="M337.5,96.2c-7.2-44.9-49.3-75.4-94.2-68.3c-36.5,5.8-64.6,35.2-68.8,71.9l-0.1,0.5v274l0.6,1.6
	c0.5,1.4,0.9,2.5,60,94.3c5.2,8.1,13,12.8,21.2,12.8s16-4.6,21.2-12.8c58.6-90.8,59-91.7,59.4-92.7l0.8-1.8V97L337.5,96.2z
	 M256.2,46.1c30.6,0.2,56.7,22.3,62,52.4v27.8H193.8v-24.8C197.5,69.9,224.4,46.1,256.2,46.1L256.2,46.1z M221.6,413.6
	c-7.6-11.9-14.7-23-20-31.2H311c-5.2,8.1-12.4,19.2-20.1,31.2H221.6z M193.8,363V150.5h124.5V363H193.8z"/>
<path class="st0" d="M204.6,111.7c2.6,0.7,5.2-0.9,5.9-3.5c0,0,0,0,0,0c4.1-15.9,13.9-29.7,27.4-39c2.3-1.4,3-4.4,1.6-6.7
	c-1.4-2.3-4.4-3-6.7-1.6c-0.1,0.1-0.3,0.2-0.4,0.3c-15.5,10.6-26.6,26.4-31.3,44.6C200.5,108.4,202,111.1,204.6,111.7z"/>
</svg>
