<?xml version="1.0" encoding="utf-8"?>
<!-- Generator: Adobe Illustrator 21.0.0, SVG Export Plug-In . SVG Version: 6.00 Build 0)  -->
<svg version="1.1" id="Layer_1" xmlns="http://www.w3.org/2000/svg" xmlns:xlink="http://www.w3.org/1999/xlink" x="0px" y="0px"
	 viewBox="0 0 512 512" style="enable-background:new 0 0 512 512;" xml:space="preserve">
<style type="text/css">
	.st0{fill:none;}
	.st1{fill:#E06B19;}
</style>
<title>iconos_WEB_traftec</title>
<path class="st0" d="M170.9,33.3h171.3c21.5,0,38.9,17.4,38.9,38.9v291.2c0,21.5-17.4,38.9-38.9,38.9H170.9
	c-21.5,0-38.9-17.4-38.9-38.9V72.2C132,50.8,149.4,33.3,170.9,33.3z"/>
<circle class="st1" cx="256" cy="360.9" r="17"/>
<path class="st1" d="M171.2,489.7c-1.7,0-3.3-0.5-4.8-1.3l-23.8-14.1c-4.4-2.6-5.9-8.4-3.3-12.8c2.6-4.4,8.4-5.9,12.8-3.3l13,7.8
	c1.8-5.7,4.2-11.2,7.1-16.5c11.4-20.4,28.3-30.6,49.2-29.4c5.2,0.3,9.1,4.7,8.8,9.9s-4.7,9.1-9.9,8.8c-13.4-0.8-23.7,5.6-31.5,19.4
	c-4,7.4-6.9,15.4-8.4,23.7C179.7,486.3,175.8,489.7,171.2,489.7L171.2,489.7z"/>
<path class="st1" d="M336.2,482.6c-5.1,0-9.2-4.1-9.4-9.1l-0.4-15.1c-5.8,1.5-11.7,2.4-17.7,2.8c-23.3,1.3-41-7.7-51-26
	c-2.6-4.4-1.2-10.2,3.3-12.8c4.4-2.6,10.2-1.2,12.8,3.3c0.1,0.2,0.2,0.4,0.3,0.5c6.5,11.9,17.5,17.2,33.6,16.3
	c8.3-0.6,16.4-2.4,24.1-5.4c4.7-2.1,10.2,0.1,12.3,4.9c0.5,1.1,0.7,2.3,0.8,3.5l0.7,27.6c0.1,5.2-4,9.4-9.1,9.6c0,0,0,0,0,0
	L336.2,482.6z"/>
<circle class="st1" cx="210.5" cy="220.9" r="15.1"/>
<circle class="st1" cx="297.8" cy="220.9" r="15.1"/>
<path class="st1" d="M342.2,22.3H170.9c-27.6,0-50,22.4-50,50v291.1c0,27.6,22.4,50,50,50l0,0h171.3c27.6,0,50-22.4,50-50l0,0V72.2
	C392.2,44.6,369.8,22.3,342.2,22.3z M170.9,44.4h171.3c14.1,0,26,10.6,27.6,24.6H143.2C144.9,55,156.7,44.4,170.9,44.4z M370,363.4
	c0,15.4-12.5,27.8-27.8,27.8H170.9c-15.4,0-27.8-12.5-27.9-27.8v-31.6h227V363.4z M143,315.8V84.9h227v230.9H143z"/>
<path class="st1" d="M310.3,249.1c-13.8,24.5-44.2,34.1-69.6,21.9c-5.8-2.8-10.8,5.8-5,8.6c30.2,14.7,66.6,3.9,83.3-25.5
	C322.1,248.5,313.5,243.5,310.3,249.1z"/>
</svg>
