<?xml version="1.0" encoding="utf-8"?>
<!-- Generator: Adobe Illustrator 21.0.0, SVG Export Plug-In . SVG Version: 6.00 Build 0)  -->
<svg version="1.1" id="Layer_1" xmlns="http://www.w3.org/2000/svg" xmlns:xlink="http://www.w3.org/1999/xlink" x="0px" y="0px"
	 viewBox="0 0 512 512" style="enable-background:new 0 0 512 512;" xml:space="preserve">
<style type="text/css">
	.st0{fill:none;}
	.st1{fill:#E06B19;}
</style>
<title>iconos_WEB_traftec</title>
<path class="st0" d="M210.8,320.8h82.6c10.3,0,18.6,8.3,18.6,18.6V422c0,10.3-8.3,18.6-18.6,18.6h-82.6c-10.3,0-18.6-8.3-18.6-18.6
	v-82.6C192.2,329.1,200.6,320.8,210.8,320.8z"/>
<path class="st0" d="M415.7,377.6H96.3c-23.3-0.1-42.2-19-42.3-42.3V110.9c0.1-23.3,19-42.2,42.3-42.3h319.5
	c23.3,0.1,42.2,19,42.3,42.3v224.4C457.9,358.6,439,377.5,415.7,377.6z"/>
<path class="st1" d="M343.7,144.5H227.6v-37.2l-77.2,44.5l77.1,44.5v-37.2h116.1c4,0,7.3-3.3,7.3-7.3S347.8,144.5,343.7,144.5z"/>
<path class="st1" d="M349.1,231.1l-77.1-44.5v37.2H166.5c-4,0-7.3,3.3-7.3,7.3s3.3,7.3,7.3,7.3h105.5v37.2L349.1,231.1z"/>
<path class="st1" d="M415.7,59.1H96.3c-28.6,0-51.8,23.2-51.8,51.8v224.4c0,28.6,23.2,51.8,51.8,51.8h89.4V422
	c0,15.6,12.6,28.2,28.2,28.2h82.6c15.6,0,28.2-12.6,28.2-28.2v-34.9h91.1c28.6,0,51.8-23.2,51.8-51.8V110.9
	C467.5,82.3,444.3,59.1,415.7,59.1z M305.5,422c0,5-4,9-9,9h-82.6c-5,0-9-4-9-9v-34.9h100.6V422z M448.5,335.3
	c0,18.1-14.7,32.7-32.7,32.7H96.3c-18,0-32.7-14.6-32.7-32.7v-17.5h384.9L448.5,335.3z M448.5,298.7H63.6V110.9
	c0-18.1,14.6-32.7,32.7-32.7h319.5c18,0,32.7,14.6,32.7,32.7L448.5,298.7z"/>
</svg>
