<svg id="Capa_1" data-name="Capa 1" xmlns="http://www.w3.org/2000/svg" viewBox="0 0 670 230"><defs><style>.cls-1{fill:#87868a;}</style></defs><title>logos_clientes</title><path class="cls-1" d="M105.56,56.34C65.79,81.9,81.78,87.91,76.72,87.91c-4.78,0-14.9-12.44-3.83-23.24-24.33,8.61-33.62,36.91-33.62,36.91C26.83,139.72,49.52,141.5,49.52,141.5c14.08,0,22.55-24.2,24.74-30.89a5,5,0,0,1,.27-1.91c-18.18.41-18.18,9-18.18,9-5.74,0-5.74-6.15-5.74-6.15C50.61,97.89,74,97.89,74,97.89c8.48,0,16.81,5.33,13.81,12.16-24.19,54.13-3.28,62.47-11.21,62.06-2.32,0-11.35-4.92-13.26-6.84C56.76,158,64,141.22,65,139.72c-4.92,7.38-15.44,9-15.44,9-44.29,0-27.06-48.79-27.06-48.79,15.58-45.93,47-50,47-50a27,27,0,0,1,12.71,5.47,41.21,41.21,0,0,1,7.93-5.88c7-4.78,22.55,2.19,15.45,6.84M68,52.65C48.56,58.94,37.76,76.84,37.76,76.84,54.58,56.75,69.07,54,69.07,54s2.6-2.32-1.09-1.37m7.24,113.72s-4.37-10,0-27.61c4.24-17.09-9.43,14.62,0,27.61"/><path class="cls-1" d="M125.65,126.6c-5.74,8.75-21.6,22.83-21.6,22.83a59.15,59.15,0,0,1-10.25-4.24c-6.7-3.42-4.65-9.3-4.65-9.3,1.91-6.42,7.52-20.5,11.34-31.44,12.71-34.45,9.16-41.14,9.16-41.14s13.4,5.33,16.27,8.61,0,8.2,0,8.2l-15,39.23a143.3,143.3,0,0,0-6.42,22c8.2-4.37,21.19-22.28,21.19-22.28,3.83.27,0,7.52,0,7.52m-15.72-9.71,11.62-30.62c-7.11,12.44-11.62,30.62-11.62,30.62"/><path class="cls-1" d="M185.66,122.08c-5.47,8.88-21.19,23.51-21.19,23.51-13.8-4.24-15.45-12.3-15.45-12.3l3.69-10.11c-11.48,25.7-15.31,22.42-15.31,22.42-14.08-4.24-15.58-12.3-15.58-12.3l9.43-24.06c7-17.5,3-20.5,3-20.5,7,0,12.85,5.74,12.85,5.74,4.1,3.14.82,12.16.82,12.16-5.19,14.35-8.06,24.47-9.29,30.89C144.93,130,162,97.89,162,97.89c1.64-7.79-.41-9.16-.41-9.16,14.22,1.37,16.26,9.71,13.67,17.91a241,241,0,0,0-9.43,30.21c8.06-5.33,19.55-22.28,19.55-22.28,4.1.14.27,7.52.27,7.52M146,104.59s-5.88,14.49-5.6,20.23Zm25.42,4.1c-5.06,9.84-7.79,26.93-7.79,26.93Z"/><path class="cls-1" d="M242.11,80.4a5,5,0,0,1-4.37,3.28s-10.66.14-22.42,1.09l-12.85,33.35A108.81,108.81,0,0,0,196.32,140c7.79-4.78,20-22.55,20-22.55,4,.14.14,7.38.14,7.38-5.47,8.88-20.78,23.24-20.78,23.24a83.08,83.08,0,0,1-10.39-4.24c-6.56-3.42-4.51-9.43-4.51-9.43,2-6.15,7.52-20.23,11.34-31.16,2.6-6.7,4.51-12.3,5.88-17.09-9,1-15.85,2.32-14.35,4.37-.82.82-6.56,1.5-6.56-4.37,0,0-.82-3.28,4.51-5.2,2.32-.82,9.57-1.09,18.18-1.23,3.42-13.94,1.64-17.22,1.64-17.22s13.26,5.33,16,8.75c2.73,3.14,0,7.93,0,7.93l-.27.41c12.71-.14,23.65-.14,23.51-1.23,0-1.37,2.6.41,1.5,2.05m-31.57,8.2c-3.83,4.1-11.75,34.86-10.52,30.89S210.53,88.6,210.53,88.6"/><path class="cls-1" d="M264.52,119.76c-11.62,18-25,26.93-32.94,26.93,0,0-17.77,0-18.45-15.31s4.1-40.32,32.53-42.65a23.79,23.79,0,0,1,5.06,1.78c15.17,6.29,6.42,19.41,6.42,19.41-13.26,17.77-27.34,14.49-27.34,14.49a16.76,16.76,0,0,1-3-1.23,27.45,27.45,0,0,0-.82,7.65,20.76,20.76,0,0,0,1,8.06c5.06,12.85,29.39-14.22,35.68-25.83,3.55-.28,1.91,6.7,1.91,6.7m-38.82-19.41a46.66,46.66,0,0,1,13.94-8.61s-17,3.42-22.14,20.78c-.14.55,3.14-7.11,8.2-12.16m3.14,17.09c8.34-1.37,19.14-12,18-15.86-6.56,2.73-14.08,7.52-18,15.86m15.58-7.93a25.92,25.92,0,0,1-11.75,7.93c11.75-2.05,16.81-13.94,11.75-7.93"/><path class="cls-1" d="M322.89,121.67c-5.47,9.16-21.6,24.06-21.6,24.06l-.41-.55v.41c-14.35-4.24-16-12.57-16-12.57l9.57-24.47a62.71,62.71,0,0,0,4.24-14.08c-2.05-3-25.56,51.12-25.56,51.12-14.35-4.24-16-12.57-16-12.57l9.29-24.47c7.52-18.31,3.69-21.19,3.69-21.19,7,0,13,5.74,13,5.74,4.24,3.28,1,12.58,1,12.58-1.09,2.87-2.05,5.33-3,7.93C293.09,87.37,298,87.37,298,87.37c7,0,13,5.74,13,5.74,4.24,3.28,1,12.58,1,12.58a222.48,222.48,0,0,0-9.71,31.44c8.06-5.06,20.64-23,20.64-23,4,.14,0,7.51,0,7.51m-51.26-20.09s-7,19.27-8.88,22.69a.13.13,0,0,1-.14.14h.14v-.14c1.37-2.6,7.52-11.48,8.88-22.69m27.75,0s-9,24.74-9.84,26.38,7.93-12.16,9.84-26.38"/><path class="cls-1" d="M444.68,66.45c-11.21.27-22.42.27-32.39.27a40.44,40.44,0,0,1-1.91,7l-6.83,19.68H415c14.35,0,14.22-5.47,14.22-5.47s.68-5.74,3.55,4.23c1.64,8.2-7.38,10.53-18.73,10.25h-13.8l-3.55,10c-10.93,30.48-7.93,44.28-7.93,44.28s.68,5.2-10.52-7a14.22,14.22,0,0,1-3.42-14.22c1-3.28,5.6-18,10.39-32.8-9,.55-15,2.32-15.72,6.56-1.91,0-2.87-5.33-2.87-5.33l.41-2.32c.68-5.47,8.75-7.38,20.91-7.79,3.28-9.57,6-17.91,7.24-21.87A20,20,0,0,0,396.7,67c-18.73.41-32,2.19-32.8,8.89C358.29,74.65,359,68,359,68c.82-7.79,14.9-11.48,37.31-13.4-1.09-3.28-2.32-4.92-1.37-5.88s5.6,1.78,9.57,4.92c12.3-.68,26.24-1,41.69-1.09,21.19,0,23.65-13.8,23.65-13.8s.41-8.2,7.11,6c4.24,11.48-8.47,21.73-32.26,21.73m-51.94-9.57c-25.7.41-30.48,8.88-30.48,8.88a32.31,32.31,0,0,1,12-5.88,104.87,104.87,0,0,1,18.45-3m-13.94,88.3s-3.83-7.79,6.7-34.31c0,0-13.94,30.48-6.7,34.31m88.57-97.46c-6.7,7.65-25.7,6.83-25.7,6.83,25.56,3.42,32.67-14.49,25.7-6.83"/><path class="cls-1" d="M476.66,121.67c-5.88,9.43-22.55,24.06-22.55,24.06-14.35-4.37-16-12.57-16-12.57l9.57-24.88c1.23-3.28,2.19-6.15,2.73-8.2,0-1.23-1.5-2.05-3.69-3C446,104.18,442.08,114.43,431,128l-.14-7.79s9.7-13.67,11.21-25.29C438,93,434,90.65,434,87c.14-6.15,3.14-6,6.15-5.47,1.23.27,5.06,2.87,6.29,8.88a59.49,59.49,0,0,1,5.88,1.78A30.6,30.6,0,0,1,465,99.26c1.5,1.91.14,6.29.14,6.29A214.32,214.32,0,0,0,455.61,137c8.34-5.19,21-23,21-23,4,.41,0,7.65,0,7.65M441.94,89.14a12.81,12.81,0,0,0-1.37-3.83s-2.87-3.28-3.28.82c.14,1.64,2.32,2.19,4.65,3m19.55,16.95-8.2,24.06s7.93-17.5,8.2-24.06"/><path class="cls-1" d="M522,119.76c-11.62,18-25,26.93-32.94,26.93,0,0-17.77,0-18.45-15.31s4.1-40.32,32.53-42.65a23.79,23.79,0,0,1,5.06,1.78c15.17,6.29,6.42,19.41,6.42,19.41-13.26,17.77-27.34,14.49-27.34,14.49a16.76,16.76,0,0,1-3-1.23,27.44,27.44,0,0,0-.82,7.65,20.76,20.76,0,0,0,1,8.06c5.06,12.85,29.39-14.22,35.68-25.83,3.55-.28,1.91,6.7,1.91,6.7m-38.82-19.41a46.66,46.66,0,0,1,13.94-8.61s-17,3.42-22.14,20.78c-.14.55,3.14-7.11,8.2-12.16m3.14,17.09c8.34-1.37,19.14-12,18-15.86-6.56,2.73-14.08,7.52-18,15.86m15.58-7.93a25.92,25.92,0,0,1-11.75,7.93c11.75-2.05,16.81-13.94,11.75-7.93"/><path class="cls-1" d="M568.79,119.76c-11.62,18-25,26.93-32.94,26.93,0,0-17.77,0-18.45-15.31s4.1-40.32,32.53-42.65A23.76,23.76,0,0,1,555,90.51c15.17,6.29,6.42,19.41,6.42,19.41-13.26,17.77-27.34,14.49-27.34,14.49a16.7,16.7,0,0,1-3-1.23,27.4,27.4,0,0,0-.82,7.65,20.74,20.74,0,0,0,1,8.06c5.06,12.85,29.39-14.22,35.67-25.83,3.55-.28,1.91,6.7,1.91,6.7M530,100.35a46.64,46.64,0,0,1,13.94-8.61S527,95.16,521.77,112.52c-.14.55,3.14-7.11,8.2-12.16m3.14,17.09c8.34-1.37,19.14-12,18-15.86-6.56,2.73-14.08,7.52-18,15.86m15.58-7.93a25.92,25.92,0,0,1-11.76,7.93c11.76-2.05,16.81-13.94,11.76-7.93"/><path class="cls-1" d="M131.16,209.79c0,4.72-5.62,6.36-10.07,6.36-3.48,0-9.18-1.21-9.18-5.08a3.6,3.6,0,0,1,3.79-3.55c1.29,0,2.77.35,2.93.66s.08.86.08,1.6a2.17,2.17,0,0,0,2.3,2.38c1.45,0,2.07-.7,2.11-1.76-.08-1.87-2.69-2.3-5.58-3.24-2.65-.94-5.27-2.81-5.31-5.9v-.12c0-4.06,4.8-6.36,8.78-6.36,4.57,0,9.22,1.6,9.22,5.08,0,1.87-1.37,3.4-3.79,3.4a4.7,4.7,0,0,1-2.81-.7c-.2-.31,0-.82,0-1.6,0-1.56-.66-2.27-2-2.23a1.9,1.9,0,0,0-1.84,1.84c0,1.91,2.3,2.42,5,3.2,3.12.9,6.4,2.46,6.4,6"/><path class="cls-1" d="M145.18,216.15a10.63,10.63,0,1,1,10.93-10.62,10.61,10.61,0,0,1-10.93,10.62m0-4.41c2.34,0,3.24-2.77,3.24-6.21s-1-6.21-3.24-6.21-3.24,2.85-3.24,6.21,1,6.21,3.24,6.21"/><path class="cls-1" d="M194.54,213.26c-.43,1.21-2.54,2.73-4.72,2.73a5.63,5.63,0,0,1-5.74-5.93v-7.57c0-3.91-3.67-2.54-3.67,2.07v.7c0,2.54.31,9.76.31,9.76a.24.24,0,0,1-.2.24h-7.81s-.19,0-.16-.19c0,0-.08-7.26,0-9.8,0-.94,0-1.91,0-2.77,0-3.91-3.67-2.54-3.67,2.07V215a.24.24,0,0,1-.2.24h-7.81a.21.21,0,0,1-.16-.19s.27-8.9.27-11.6c0-6.21-2.65-4.88-2.26-5.93.39-1.25,2.5-2.77,4.69-2.77a5.23,5.23,0,0,1,5.35,4.49c1.6-3.28,4.26-4.49,6.29-4.49,2.46,0,4.57,1.76,5.19,4.65,1.6-3.43,4.29-4.65,6.37-4.65,2.93,0,5.39,2.54,5.39,6.44v6.09c0,6.21,3,4.88,2.58,6"/><path class="cls-1" d="M207.35,216.15a10.63,10.63,0,1,1,10.93-10.62,10.61,10.61,0,0,1-10.93,10.62m0-4.41c2.34,0,3.24-2.77,3.24-6.21s-1-6.21-3.24-6.21-3.24,2.85-3.24,6.21,1,6.21,3.24,6.21"/><path class="cls-1" d="M240.23,209.79c0,4.72-5.62,6.36-10.07,6.36-3.48,0-9.18-1.21-9.18-5.08a3.6,3.6,0,0,1,3.79-3.55c1.29,0,2.77.35,2.93.66s.08.86.08,1.6a2.18,2.18,0,0,0,2.3,2.38c1.45,0,2.07-.7,2.11-1.76-.08-1.87-2.69-2.3-5.58-3.24-2.66-.94-5.27-2.81-5.31-5.9v-.12c0-4.06,4.8-6.36,8.78-6.36,4.57,0,9.21,1.6,9.21,5.08,0,1.87-1.37,3.4-3.79,3.4a4.7,4.7,0,0,1-2.81-.7c-.2-.31,0-.82,0-1.6,0-1.56-.66-2.27-2-2.23a1.9,1.9,0,0,0-1.83,1.84c0,1.91,2.3,2.42,5,3.2,3.12.9,6.4,2.46,6.4,6"/><path class="cls-1" d="M266.21,224.08c-5.7,0-8.32-3.83-8.78-5.31-.62-1.91-.24-2.27.19-2.19.94.16,2.07,3.12,6.44,3.12a4.7,4.7,0,0,0,5-4.45v-3.9c-1.6,3.36-4.26,4.53-6.32,4.53-2.89,0-5.35-2.54-5.35-6.44v-5.86c0-6.21-3-4.88-2.62-5.93.43-1.25,2.54-2.77,4.72-2.77a5.61,5.61,0,0,1,5.74,5.93v7.34c0,3.9,3.67,2.54,3.75-2V195.85c0-.19.16-.19.16-.19h7.54s.16,0,.16.19c0,0,.12,11.44.12,16.63.23,6.75-3.55,11.59-10.78,11.59"/><path class="cls-1" d="M312.17,209.79c0,4.72-5.62,6.36-10.07,6.36-3.48,0-9.18-1.21-9.18-5.08a3.6,3.6,0,0,1,3.79-3.55c1.29,0,2.77.35,2.93.66s.08.86.08,1.6a2.17,2.17,0,0,0,2.3,2.38c1.45,0,2.07-.7,2.11-1.76-.08-1.87-2.69-2.3-5.58-3.24-2.65-.94-5.27-2.81-5.31-5.9v-.12c0-4.06,4.8-6.36,8.78-6.36,4.57,0,9.22,1.6,9.22,5.08,0,1.87-1.37,3.4-3.79,3.4a4.7,4.7,0,0,1-2.81-.7c-.2-.31,0-.82,0-1.6,0-1.56-.66-2.27-2-2.23a1.9,1.9,0,0,0-1.83,1.84c0,1.91,2.3,2.42,5,3.2,3.12.9,6.4,2.46,6.4,6"/><path class="cls-1" d="M339.08,213.34c-.39,1.25-2.5,2.77-4.69,2.77a5.19,5.19,0,0,1-5.31-4.45c-1.33,2.54-3.44,4.41-6.17,4.41-4.92,0-7.65-5.43-7.65-10.66s2.73-10.58,7.85-10.58a6.5,6.5,0,0,1,5.82,3.71v-2.69a.25.25,0,0,1,.2-.24h7.81a.21.21,0,0,1,.16.2s-.27,8.9-.27,11.6c0,6.21,2.65,4.88,2.26,5.93m-9.92-7.93c0-2.93-1-5.31-2.93-5.31s-2.93,2.38-2.93,5.31,1,5.27,2.93,5.27,2.93-2.34,2.93-5.27"/><path class="cls-1" d="M364,205.41c0,5.35-2.69,10.58-7.81,10.58a6.5,6.5,0,0,1-5.82-3.71V215a.24.24,0,0,1-.2.23H342.6a.21.21,0,0,1-.16-.19V187.38a.15.15,0,0,1,.16-.16h7.57s.16,0,.16.16v11.56c1.29-2.42,3.36-4.18,6-4.18,4.92,0,7.61,5.43,7.61,10.66m-8,0c0-2.93-1-5.27-2.93-5.27s-2.93,2.34-2.93,5.27,1,5.31,2.93,5.31,2.93-2.38,2.93-5.31"/><path class="cls-1" d="M387.23,209.83a10.22,10.22,0,0,1-9.37,6.25,10.62,10.62,0,0,1-10.62-10.66c0-5.7,4.41-10.62,11.13-10.62,6.4,0,9.18,4,9.18,6.79,0,6.13-7.15,6.87-12.26,6,1.37,3.9,6.56,4.3,11.32,1.64a.41.41,0,0,1,.51,0c.16.12.23.27.12.62M375,204.16c3.48.31,5.19-1,5.19-3.08a1.88,1.88,0,0,0-2.07-1.87,0,0,0,0,1,0,0h-.12a2.58,2.58,0,0,0-.94.35c-1.29.78-1.87,2.66-2,4.57"/><path class="cls-1" d="M426,213.26c-.43,1.21-2.54,2.73-4.72,2.73a5.63,5.63,0,0,1-5.74-5.93v-7.57c0-3.91-3.67-2.54-3.67,2.07v.7c0,2.54.31,9.76.31,9.76a.24.24,0,0,1-.2.24h-7.81s-.19,0-.16-.19c0,0-.08-7.26,0-9.8,0-.94,0-1.91,0-2.77,0-3.91-3.67-2.54-3.67,2.07V215a.24.24,0,0,1-.2.24h-7.81a.21.21,0,0,1-.16-.19s.27-8.9.27-11.6c0-6.21-2.65-4.88-2.26-5.93.39-1.25,2.5-2.77,4.68-2.77a5.23,5.23,0,0,1,5.35,4.49c1.6-3.28,4.26-4.49,6.29-4.49,2.46,0,4.57,1.76,5.19,4.65,1.6-3.43,4.29-4.65,6.36-4.65,2.93,0,5.39,2.54,5.39,6.44v6.09c0,6.21,3,4.88,2.58,6"/><path class="cls-1" d="M438.78,216.15a10.63,10.63,0,1,1,10.93-10.62,10.61,10.61,0,0,1-10.93,10.62m0-4.41c2.34,0,3.24-2.77,3.24-6.21s-1-6.21-3.24-6.21-3.24,2.85-3.24,6.21,1,6.21,3.24,6.21"/><path class="cls-1" d="M471.66,209.79c0,4.72-5.62,6.36-10.07,6.36-3.48,0-9.18-1.21-9.18-5.08a3.6,3.6,0,0,1,3.79-3.55c1.29,0,2.77.35,2.93.66s.08.86.08,1.6a2.17,2.17,0,0,0,2.3,2.38c1.45,0,2.07-.7,2.11-1.76-.08-1.87-2.69-2.3-5.58-3.24-2.66-.94-5.27-2.81-5.31-5.9v-.12c0-4.06,4.8-6.36,8.79-6.36,4.57,0,9.21,1.6,9.21,5.08,0,1.87-1.37,3.4-3.79,3.4a4.7,4.7,0,0,1-2.81-.7c-.2-.31,0-.82,0-1.6,0-1.56-.66-2.27-2-2.23a1.9,1.9,0,0,0-1.84,1.84c0,1.91,2.3,2.42,5,3.2,3.12.9,6.4,2.46,6.4,6"/><path class="cls-1" d="M605.37,138.41c-9.66-9.66-7.57-27.49-7.57-27.49s17.79-2.05,27.45,7.61S632.89,146,632.89,146s-17.81,2.11-27.51-7.59"/><path class="cls-1" d="M631.95,102.47c-13.71,0-24.8-14.08-24.8-14.08s11.1-14.09,24.8-14.09,24.78,14.11,24.78,14.11-11.1,14-24.78,14.06"/><path class="cls-1" d="M625.3,58.25c-9.7,9.7-27.47,7.59-27.47,7.59S595.71,48,605.39,38.35s27.49-7.57,27.49-7.57,2.1,17.79-7.59,27.47"/><path class="cls-1" d="M589.31,31.67c0,13.73-14.06,24.82-14.06,24.82s-14.1-11.12-14.08-24.8S575.25,6.92,575.25,6.92,589.32,18,589.31,31.67"/><path class="cls-1" d="M545.09,38.36c-9.68-9.68-27.45-7.61-27.45-7.61s-2.11,17.81,7.57,27.49,27.49,7.57,27.49,7.57,2.07-17.77-7.61-27.45M550.93,64c-4.4.22-17.05.16-24.37-7.15s-7.39-19.94-7.15-24.36c4.38-.2,17-.14,24.34,7.16s7.39,20,7.17,24.35"/><path class="cls-1" d="M519.41,32.53c-.24,4.42-.16,17.05,7.15,24.36s20,7.37,24.37,7.15c.22-4.36.16-17-7.17-24.35s-20-7.37-24.34-7.16"/></svg>