<svg id="Capa_1" data-name="Capa 1" xmlns="http://www.w3.org/2000/svg" viewBox="0 0 832 174"><title>logos_clientes</title><path d="M258.94,53.86H239.27a.9.9,0,0,1-1-1V28.46A2.45,2.45,0,0,0,235.79,26H212.84a2.45,2.45,0,0,0-2.46,2.46V52.84a.9.9,0,0,1-1,1H197.68a2.45,2.45,0,0,0-2.46,2.46V74.55A2.45,2.45,0,0,0,197.68,77h11.68a.91.91,0,0,1,1,1v54.9q.2,15.57,8.6,21.2t25.4,5.63q3.69,0,12.29-.41a2.53,2.53,0,0,0,2.46-2.66V137.24a2.45,2.45,0,0,0-2.46-2.46h-6.76q-6.15,0-8.91-3.28t-2.77-10V78a.9.9,0,0,1,1-1h19.67a2.45,2.45,0,0,0,2.46-2.46V56.32a2.45,2.45,0,0,0-2.46-2.46Z"/><path d="M342.93,55.3q-4.3-2.87-11.68-2.87-14.14,0-22.53,12.29a.4.4,0,0,1-.61.2.82.82,0,0,1-.41-.82V56.32a2.45,2.45,0,0,0-2.46-2.46h-24a2.45,2.45,0,0,0-2.46,2.46V156.7a2.45,2.45,0,0,0,2.46,2.46h24a2.45,2.45,0,0,0,2.46-2.46V100.78q0-8,5.12-12.8a20.13,20.13,0,0,1,12.5-5.43,34,34,0,0,1,4.51-.41,22.75,22.75,0,0,1,7.17,1q2.66,1,2.87-1.43l4.3-23.35Q344.57,56.12,342.93,55.3Z"/><path d="M421.8,56.83A58.3,58.3,0,0,0,398,52.22a60.55,60.55,0,0,0-22.23,3.89,40,40,0,0,0-16,10.86A27.25,27.25,0,0,0,353,82.54q-.21,1.44,2.25,1.84L380,87.66q2,.21,2.66-2a10.52,10.52,0,0,1,5.43-6.35A22.14,22.14,0,0,1,398.65,77q8.19,0,12.29,3.79T415,91.35v4.51a.9.9,0,0,1-1,1h-20.9q-20.49,0-31.55,8.71t-11.06,24.48q0,15.16,9.83,22.94t25.81,7.78q19.05,0,27.66-11.27c.27-.41.54-.54.82-.41a.83.83,0,0,1,.41.82v6.76a2.45,2.45,0,0,0,2.46,2.46h24a2.45,2.45,0,0,0,2.46-2.46V87.25a29.49,29.49,0,0,0-5.84-17.82A39.21,39.21,0,0,0,421.8,56.83ZM415,122.49a14.59,14.59,0,0,1-6.15,12.09,23.84,23.84,0,0,1-15,4.71q-6.56,0-10.45-3.18a10.62,10.62,0,0,1-3.89-8.71,11.15,11.15,0,0,1,5.22-9.83q5.22-3.48,14.44-3.48H414a.91.91,0,0,1,1,1Z"/><path d="M695.81,63.9Q683.41,52,662.93,52q-16.19,0-28,8.6a45,45,0,0,0-16.49,23.15,59,59,0,0,0-3.07,19.87q0,16.59,4.3,26.84a44.35,44.35,0,0,0,17.52,22.33q12.19,8,29.81,8a58.18,58.18,0,0,0,23.35-4.61,44.67,44.67,0,0,0,17.41-13,4.24,4.24,0,0,0,.82-1.64,2.84,2.84,0,0,0-1-1.84l-14.75-14.55a1.85,1.85,0,0,0-3.28.41,24.72,24.72,0,0,1-20.69,10.65q-16.39,0-21.72-11.47a36.48,36.48,0,0,1-2.25-8.19c-.28-.68,0-1,.82-1H709a2.39,2.39,0,0,0,2.66-2.46,88.24,88.24,0,0,0-.82-17.41Q708.2,75.78,695.81,63.9ZM681.16,96.68H645.72a.9.9,0,0,1-1-1,48.18,48.18,0,0,1,1.43-6.56q4.1-12.09,17-12.09a18.7,18.7,0,0,1,11.37,3.38A17.7,17.7,0,0,1,681,89.92q0-.2,1,5.74C682.25,96.34,682,96.68,681.16,96.68Z"/><path d="M764.54,80.29A18.31,18.31,0,0,1,775.6,77a19.69,19.69,0,0,1,11.68,3.48,15.6,15.6,0,0,1,6.35,8.81l.61,3.28a2.46,2.46,0,0,0,2.46,2h.41l23.56-3.48a2.18,2.18,0,0,0,2-2.25v-.41a26.07,26.07,0,0,0-1.64-7.37Q817,68.62,804.59,60.42t-28.78-8.19q-16.39,0-28.48,8a42.5,42.5,0,0,0-17,21.92q-3.49,10-3.48,23.76,0,13.93,3.48,24.17a44.7,44.7,0,0,0,17.11,22.53q12,8.2,28.37,8.19,16.18,0,28.58-7.78a38.19,38.19,0,0,0,16.7-21.51,28.79,28.79,0,0,0,1.23-6.15,2.18,2.18,0,0,0-2-2.25l-23.56-3.69q-2.66-.41-2.87,2a.84.84,0,0,1-.21.62,2.89,2.89,0,0,1-.2,1.23,17.29,17.29,0,0,1-6.66,9.32A19,19,0,0,1,775.6,136a18,18,0,0,1-11.16-3.48A18.22,18.22,0,0,1,758,122.9q-2.05-6.15-2-16.8t2.25-16.8A17.36,17.36,0,0,1,764.54,80.29Z"/><path d="M599.39,52.8H578.52V28.46A2.45,2.45,0,0,0,576.07,26H553.12a2.45,2.45,0,0,0-2.46,2.46V52.8H501.11a1.42,1.42,0,0,1,0-.17V50.38q0-7.37,2.77-10.14t9.94-3h6.76A2.45,2.45,0,0,0,523,34.81V18.21a2.45,2.45,0,0,0-2.46-2.46h-7.78q-15.36-.41-24.07,2.56t-12.6,10q-3.89,7.07-3.89,19.77v4.51a1.41,1.41,0,0,1,0,.17H458.81a3.59,3.59,0,0,0-3.59,3.59v18.7a3.59,3.59,0,0,0,3.59,3.59h13.34a1.41,1.41,0,0,1,.05.38V156.7a2.45,2.45,0,0,0,2.46,2.46h24a2.45,2.45,0,0,0,2.46-2.46V79.06a1.42,1.42,0,0,1,.05-.38h49.52v54.26q.2,15.57,8.6,21.2t25.4,5.63q3.69,0,12.29-.41a2.53,2.53,0,0,0,2.46-2.66V137.24a2.45,2.45,0,0,0-2.46-2.46H590.2q-6.15,0-8.91-3.28t-2.77-10V78.68h20.86A3.59,3.59,0,0,0,603,75.09V56.39A3.59,3.59,0,0,0,599.39,52.8Z"/><path d="M149.47,1.59A11.86,11.86,0,0,0,137.6,13.45c0,.11,0,.21,0,.32H20.42A10.16,10.16,0,1,0,6.05,27.24V69.06H34.82a13.56,13.56,0,0,0,10.71,11.7v72.51a10.22,10.22,0,1,0,12.78,8.19l38.63-16.63a13.55,13.55,0,1,0,12.55-18.66c-.3,0-.6,0-.9,0V69.06h28.13a10.17,10.17,0,1,0,11.35-15.48V25.22a11.86,11.86,0,1,0,1.39-23.64ZM50.78,153.21V80.8a13.47,13.47,0,0,0,5.71-2.54L70.74,96.09,51.29,153.34ZM20.93,22.55C33.14,26.8,58,35.93,84.88,45.91l-26.07,13a13.51,13.51,0,0,0-16.26-3.74L18.91,25.66A10.16,10.16,0,0,0,20.93,22.55ZM59,75.78a13.49,13.49,0,0,0,1.66-13.83L86.78,48.87,72.08,92.15Zm30.19-32c-26.44-9.84-54-20-67.5-24.62,0,0,0-.09,0-.13h117ZM11.3,28.84h.22a10.11,10.11,0,0,0,4.58-1.1L39.57,57.1a13.55,13.55,0,0,0-4.33,6.71H11.3ZM54.44,155,73.38,99.38l25.51,31.91a13.49,13.49,0,0,0-2.94,8.25L56.18,156.66A10.21,10.21,0,0,0,54.44,155Zm48.91-91.17v63.84a13.53,13.53,0,0,0-1.93,1.2l-26.7-33.4L90.84,48.13c14.17,5.27,28.67,10.69,42,15.68Zm39.48-10.4A10.17,10.17,0,0,0,135.22,61c-11-4.13-25.92-9.72-41.56-15.54L141,21.76a11.92,11.92,0,0,0,1.82,1.52Z"/></svg>