<svg id="Capa_1" data-name="Capa 1" xmlns="http://www.w3.org/2000/svg" viewBox="0 0 520 520"><defs><style>.cls-1{fill:#87868a;}</style></defs><title>logos_clientes</title><path class="cls-1" d="M260.74,25.86c128.41,0,232.88,104.47,232.88,232.88S389.15,491.62,260.74,491.62,27.86,387.15,27.86,258.74,132.33,25.86,260.74,25.86m0-11.39c-134.9,0-244.27,109.36-244.27,244.27S125.84,503,260.74,503,505,393.65,505,258.74,395.65,14.47,260.74,14.47"/><path class="cls-1" d="M260.74,433.29c-96.25,0-174.55-78.3-174.55-174.55S164.49,84.19,260.74,84.19s174.55,78.3,174.55,174.55S357,433.29,260.74,433.29m0-341.52c-92.07,0-167,74.9-167,167s74.9,167,167,167,167-74.9,167-167-74.9-167-167-167"/><path class="cls-1" d="M260.74,113c80.36,0,145.74,65.38,145.74,145.74S341.1,404.48,260.74,404.48,115,339.1,115,258.74,180.37,113,260.74,113m0-6.11A151.85,151.85,0,1,0,412.59,258.74,151.85,151.85,0,0,0,260.74,106.89"/><polygon class="cls-1" points="445.73 251.37 459.99 250.61 467.46 238.44 472.58 251.77 486.46 255.1 475.37 264.09 476.49 278.32 464.51 270.55 451.32 276.02 455 262.22 445.73 251.37"/><polygon class="cls-1" points="35.81 252.76 49.79 249.85 55.31 236.68 62.4 249.08 76.63 250.25 67.03 260.83 70.31 274.73 57.28 268.87 45.09 276.28 46.63 262.09 35.81 252.76"/><path class="cls-1" d="M308,307.94c24.57-14.22,38.1-39.3,38.1-70.69,0-33.23-15.12-59.09-42.56-72.81a97.26,97.26,0,0,0-40.2-9.94H180.61V363.71h45.88V320h33.79c4.75,6.42,18.86,26.39,29.11,40.93l2,2.78h55.77Zm-107.41,39a3,3,0,1,1-6,0V171a3,3,0,1,1,6,0ZM283.85,269a51.47,51.47,0,0,1-20.49,5.41H226.49v-74h36.79a53.38,53.38,0,0,1,19.85,4.91c11.7,5.85,17.39,16.3,17.39,32C300.52,252.74,295.22,262.83,283.85,269Z"/><path class="cls-1" d="M196.5,86,191,87.83,180,55.07l12.73-4.28a15.88,15.88,0,0,1,6.74-.54c4.92.69,8.55,3.9,10.26,9s.77,9.89-2.73,13.41l-.31.32,8.93,6.58L209,81.79c-7.6-5.57-7.65-5.55-7.69-5.54l-7.25,2.43Zm-4.28-12.72,7.25-2.44a10.21,10.21,0,0,0,3.59-2.35c1.83-2,2.28-4.36,1.26-7.4s-2.9-4.75-5.63-5.14a10.65,10.65,0,0,0-4.1.34l-7.25,2.43Z"/><path class="cls-1" d="M227.25,70.06A16.77,16.77,0,0,1,225,63.78l-2.48-21,5.73-.68,2.48,21a10.18,10.18,0,0,0,1.51,4c1.46,2.26,3.55,3.11,6.49,2.76s4.82-1.66,5.72-4.2a10.18,10.18,0,0,0,.54-4.29l-2.47-20.93,5.73-.68,2.48,21a16.73,16.73,0,0,1-.75,6.65c-1.59,4.66-5.37,7.59-10.56,8.21S229.88,74.23,227.25,70.06Z"/><path class="cls-1" d="M264.2,73.87l3.2-34.39,11.44,1.06a17.33,17.33,0,0,1,7.66,2.89c3.4,2.35,7.33,7,6.51,15.77s-5.53,12.62-9.31,14.3a17.31,17.31,0,0,1-8.06,1.43Zm6.28-5.21,5.7.53a11.77,11.77,0,0,0,5.4-1c3.37-1.52,5.25-4.71,5.69-9.48s-.82-8.25-3.85-10.37a11.83,11.83,0,0,0-5.11-2l-5.7-.53Z"/><path class="cls-1" d="M339.34,54.08,321.56,67.62l-4.84,15.59-5.51-1.71,4.83-15.59-7-21.22,6.73,2.09,4.78,14.39,12-9.18Z"/><path class="cls-1" d="M123.71,429.59,144.46,402l11.32,8.51a8.58,8.58,0,0,1,3.67,6,11.37,11.37,0,0,1-7.35,11.26,9.39,9.39,0,0,1-.41,7.53,13.37,13.37,0,0,1-1,1.7c-4.33,5.76-10.66,4.4-15.82,1Zm8.08-1.15,7.42,5.57a5.75,5.75,0,0,0,4.73,1,3.87,3.87,0,0,0,2-1.45,8,8,0,0,0,.58-.93,3.56,3.56,0,0,0,.34-2.58,5.54,5.54,0,0,0-1.67-2.37L137,421.54ZM140.42,417l6.12,4.6c2.21,1.66,4.53.87,6.1-1.22,1.39-1.85,1.38-4-.32-5.24l-6.71-5Z"/><path class="cls-1" d="M163.52,448.43a16.68,16.68,0,0,1,1.39-6.55l9-19.1,5.22,2.46-9,19.1a10.16,10.16,0,0,0-.83,4.19c0,2.69,1.36,4.51,4,5.78s5,1.14,7.07-.54a10.14,10.14,0,0,0,2.72-3.35l9-19.06,5.22,2.46-9,19.1a16.6,16.6,0,0,1-4.16,5.24c-3.81,3.11-8.56,3.6-13.3,1.37S163.54,453.35,163.52,448.43Z"/><path class="cls-1" d="M205.18,472.27,199.56,471l7.85-33.62,13.06,3.05a15.85,15.85,0,0,1,6,3.08c3.82,3.17,5.22,7.8,4,13s-4.54,8.81-9.37,10l-.43.1,4.13,10.28L218,475.27c-3.53-8.73-3.58-8.74-3.63-8.75l-7.44-1.74Zm3.05-13.06,7.44,1.74a10.17,10.17,0,0,0,4.28-.11c2.6-.71,4.23-2.51,5-5.63s0-5.56-2.09-7.32a10.72,10.72,0,0,0-3.67-1.87l-7.44-1.74Z"/><path class="cls-1" d="M276.31,461.09l-.3,18.69-5.77-.09,0-3A17.27,17.27,0,1,1,261,445a17.15,17.15,0,0,1,12.19,5.33l-4.16,4a11.34,11.34,0,0,0-8.13-3.53,11.49,11.49,0,1,0,8.92,18.55,8.49,8.49,0,0,0,.56-.83l0-1.78-10.06-.16.09-5.72Z"/><path class="cls-1" d="M293,448l2.08,9.84L308.82,455l1.19,5.65L296.3,463.5l1.48,7L314.43,467l1.19,5.65-22.3,4.7-7.12-33.79,22.3-4.7,1.19,5.65Z"/><path class="cls-1" d="M338.26,465,333,467.3,319.2,435.63l12.31-5.35a15.86,15.86,0,0,1,6.66-1.12c5,.27,8.85,3.15,11,8.08s1.62,9.78-1.57,13.59l-.28.34,9.46,5.79-6.43,2.79c-8-4.9-8.09-4.88-8.13-4.86l-7,3Zm-5.35-12.31,7-3a10.14,10.14,0,0,0,3.37-2.65c1.66-2.12,1.9-4.54.62-7.48s-3.29-4.49-6.05-4.64a10.66,10.66,0,0,0-4.06.69l-7,3Z"/><path class="cls-1" d="M367.73,441.86l3.27-4.7c2.59,1.8,5.48,1,7.54-.42.21-.14.34-.3.54-.44,2-1.66,3.62-4.47,2.56-6.92a3.28,3.28,0,0,0-.46-.82A3.91,3.91,0,0,0,379,427c-2-.6-4.5,0-6.87,1.63S366,431.75,362,430a9.54,9.54,0,0,1-3.77-3,9.83,9.83,0,0,1-1.53-4.59c-.37-4.39,2.41-7.3,4.79-9a14.18,14.18,0,0,1,9.41-2.14l.17,5.73s-4.1-.43-6.28,1.1c-.6.42-2.54,1.78-2.37,3.83a3.65,3.65,0,0,0,.55,1.72,4.05,4.05,0,0,0,1.51,1.11c1.23.46,2.74.13,4.42-1,3.81-2.56,8.06-3.37,11.66-2.28a9.66,9.66,0,0,1,5.29,3.76,9.45,9.45,0,0,1,1,1.77c2,4.53.3,10-4.2,13.68a7.34,7.34,0,0,1-.86.66C377.3,444.6,371.89,444.79,367.73,441.86Z"/></svg>