<svg id="Capa_1" data-name="Capa 1" xmlns="http://www.w3.org/2000/svg" viewBox="0 0 542 542"><defs><style>.cls-1{fill:#87868a;}</style></defs><title>logos_clientes</title><path class="cls-1" d="M119.69,438h8.07v3.23a16.86,16.86,0,0,1,4-3.3,9.68,9.68,0,0,1,4.41-.9,10.71,10.71,0,0,1,9.37,5.17,12.12,12.12,0,0,1,10.3-5.17q11.81,0,11.81,14.32V473h-8.11V453.56q0-5-1.22-7.11a4.42,4.42,0,0,0-4.13-2.12,5.27,5.27,0,0,0-4.86,2.51q-1.53,2.51-1.53,8.07V473h-8.11V453.67q0-9.33-5.38-9.33a5.4,5.4,0,0,0-5,2.55q-1.56,2.55-1.56,8V473h-8.07Z"/><path class="cls-1" d="M203.6,438h8.11v35H203.6v-3.66q-5,4.67-10.73,4.67a15.46,15.46,0,0,1-12-5.24,19.48,19.48,0,0,1-4.7-13.35,18.89,18.89,0,0,1,4.7-13.1,15.16,15.16,0,0,1,11.77-5.24q6.1,0,10.95,5Zm-19.16,17.37a12.17,12.17,0,0,0,2.69,8.18,8.81,8.81,0,0,0,7,3.19,9.26,9.26,0,0,0,7.25-3.09,13.28,13.28,0,0,0,0-16.22,9.14,9.14,0,0,0-7.18-3.12,8.93,8.93,0,0,0-7,3.16A11.64,11.64,0,0,0,184.44,455.39Z"/><path class="cls-1" d="M233.57,466.48,217.85,438h9.37l10.69,20.1,10-20.1H257l-27.85,54h-9.22Z"/><path class="cls-1" d="M259.44,455.25a17.37,17.37,0,0,1,5.42-12.88,19.12,19.12,0,0,1,26.49,0,18.72,18.72,0,0,1,0,26.31A18.52,18.52,0,0,1,277.92,474a17.76,17.76,0,0,1-13.17-5.38A18.1,18.1,0,0,1,259.44,455.25Zm8.25.14a11.79,11.79,0,0,0,2.8,8.29,10.88,10.88,0,0,0,15.14,0,13.12,13.12,0,0,0,0-16.29,10.74,10.74,0,0,0-15.07,0A11.23,11.23,0,0,0,267.69,455.39Z"/><path class="cls-1" d="M305.27,438h8.07v3.12a15.42,15.42,0,0,1,3.95-3.19,9.06,9.06,0,0,1,4.16-.9,13.05,13.05,0,0,1,6.68,2.08l-3.7,7.39a7.72,7.72,0,0,0-4.49-1.65q-6.6,0-6.6,10V473h-8.07Z"/><path class="cls-1" d="M332.65,423.49a5.27,5.27,0,0,1,5.24-5.2,5.09,5.09,0,0,1,3.73,1.54,5,5,0,0,1,1.54,3.7,5.08,5.08,0,0,1-1.54,3.73,5,5,0,0,1-3.7,1.54,5.27,5.27,0,0,1-5.28-5.31ZM341.95,438v35h-8.07V438Z"/><path class="cls-1" d="M372.49,444l-6.68,3.55q-1.58-3.23-3.91-3.23a2.69,2.69,0,0,0-1.9.74,2.46,2.46,0,0,0-.79,1.88q0,2,4.67,4,6.42,2.76,8.65,5.1a8.73,8.73,0,0,1,2.23,6.28,11,11,0,0,1-3.73,8.47,12.7,12.7,0,0,1-8.76,3.23q-8.79,0-12.45-8.58l6.89-3.19a14.94,14.94,0,0,0,2.19,3.19,5,5,0,0,0,3.52,1.36q4.09,0,4.09-3.73,0-2.15-3.16-4-1.22-.61-2.44-1.18l-2.48-1.18a15.15,15.15,0,0,1-5-3.45,8.49,8.49,0,0,1-1.83-5.63,10,10,0,0,1,3.12-7.54,11,11,0,0,1,7.75-3Q369.22,437.06,372.49,444Z"/><path class="cls-1" d="M390.32,445.56V473h-8.07V445.56H378.8V438h3.45V425.21h8.07V438h6.28v7.54Z"/><path class="cls-1" d="M428.51,438h8.11v35h-8.11v-3.66q-5,4.67-10.73,4.67a15.46,15.46,0,0,1-12-5.24,19.48,19.48,0,0,1-4.7-13.35,18.89,18.89,0,0,1,4.7-13.1,15.16,15.16,0,0,1,11.77-5.24q6.1,0,10.95,5Zm-19.16,17.37a12.17,12.17,0,0,0,2.69,8.18,8.81,8.81,0,0,0,7,3.19,9.26,9.26,0,0,0,7.25-3.09,13.28,13.28,0,0,0,0-16.22,9.14,9.14,0,0,0-7.18-3.12,8.93,8.93,0,0,0-7,3.16A11.64,11.64,0,0,0,409.34,455.39Z"/><path class="cls-1" d="M422.43,309.11c-3.06-18.8-9.19-36.57-20.48-51.95-18.12-24.65-46.91-32.23-75.32-26.41-2.23.46-4.65,2.71-6.53,1.36s-.49-4.34-1-6.6c-3.16-15.18-6.22-30.39-9.3-45.59-1.64-8.12-1.5-7.67,6.52-9.9,15.1-4.2,27.28.22,37.62,11.32,3.06,3.29,6.26,6.45,9.32,9.74,8.7,9.38,17.07,19.07,26.2,28a24.88,24.88,0,0,0,7.66,5.33c6.46,2.76,15.38.78,19.86-4.42s4.47-10.19.26-17.63c-5.83-10.32-13.67-18.93-22.18-27s-17.84-15.51-29.91-19c4.44-2.6,8.39-4.73,12.15-7.15,27.49-17.71,22.42-46.59,10.69-63.66C377.93,70.84,362.29,66.74,345.37,69c-21.28,2.84-42.27,7.49-63.11,12.7-2.67.67-3.6.26-3.41-2.79.78-12.8-7.61-23.66-20-26.64-8.4-2-15.64.93-22.45,5.13q-53.71,33.13-107.26,66.51c-7.63,4.74-15.54,9.05-22.64,14.6-7.69,6-9.32,15.49-4.19,23.7,4.72,7.57,13.43,9.7,22.12,5.32,2.91-1.47,5.77-3.07,8.53-4.81q10.88-6.86,21.64-13.91c1.49-1,2.61-1.47,4.32-.19q27,20.22,54,40.28a2.28,2.28,0,0,1,1,3,250.29,250.29,0,0,0-8.67,31.42c-.72,3.62-2.15,4.24-5.59,3.42-12.17-2.9-24.39-5.55-36.62-8.18-13.56-2.91-21.13,1.85-24.49,15.23-.07.26-.08.54-.14.8-5.41,24.15-10.92,48.28-16.22,72.45-4,18.32-8.61,36.52-11.91,55-1.68,9.39,1.42,15.11,10.16,18.77a42.13,42.13,0,0,0,7,2.19c16.19,3.65,32.36,7.4,48.61,10.77,13.75,2.85,27.6,3.71,41.08-1.37,20.15-7.6,32.82-22.64,41-42,2.47-5.88,4.2-12,6.36-19.1,2.57,9.42,4,18,7.42,26.08,9.68,22.67,24.84,39.67,49,46.93,20.92,6.28,41.34,3,60.91-5.66,21-9.32,34.19-25.53,39.77-47.82C425,337,424.71,323.08,422.43,309.11Zm-189-11.32c-.59,16.94-4.14,33.16-12.32,48.14-9.38,17.19-23.49,23.75-42.6,20-9.59-1.89-19-4.73-28.72-5.85-2.85-.33-3.54-1.32-2.89-4.22q11.7-51.94,23.14-103.93c.55-2.49,1.41-3.2,4.11-2.53,11.72,2.94,23.63,5,35.11,9.11,16.46,5.82,23.38,19.34,24.16,35.2C233.52,295.07,233.47,296.43,233.47,297.79ZM224.2,157.05c-1,3.35-1.76,4.24-5,1.83-11.62-8.74-23.08-17.7-35.24-25.7-1.71-1.13-3.24-2-.37-3.92,20-13.15,39.91-26.43,59.85-39.66a6.57,6.57,0,0,1,1.41-.33c-2.9,10.36-6.69,20-9.43,29.89C231.95,131.85,227.85,144.39,224.2,157.05Zm65.87,89.16A69,69,0,0,0,271,268.29c-1.92,3.43-2.74,7.26-4.69,11.89A84.31,84.31,0,0,0,254,253.69a41.71,41.71,0,0,0-14.91-13c-1.37-.71-2.33-1.34-1.54-3.43,6.18-16.17,9.4-33.19,13.95-49.83,4.66-17,8.93-34.19,13.39-51.29.23-.87.59-1.7,1.28-3.65,2,10.71,3.64,20.33,5.56,29.89q6.9,34.36,14,68.67c.81,3.89,2.22,7.69,5,10.56C293,243.84,292,244.81,290.08,246.22Zm7.15-142c14-2.44,27.82-6.34,42.06-7.74,14.45-1.42,24,7.26,24,21.36.23,8.33-4,13.35-10.24,17-7.65,4.42-16.26,6-24.74,7.92-7.54,1.69-15.27,2.52-22.63,5-1.74.59-2.4,0-2.75-1.74-2.6-12.91-5.28-25.81-7.95-38.71C294.62,105.39,295.4,104.52,297.23,104.2Zm74.38,266.41a41.64,41.64,0,0,1-52-2.91c-13.45-11.88-18.87-27.57-22.16-44.36-2.58-13.16-2.74-26.32,2.36-39,6.85-17,20.26-25.3,38-26.17,16.23-.79,28.57,6.47,37.56,20.21,9.35,14.31,14.64,36.17,14.87,53.15C389.46,346,385.6,360.57,371.61,370.61Z"/><path class="cls-1" d="M118.76,438h8.07v3.23a16.86,16.86,0,0,1,4-3.3,9.68,9.68,0,0,1,4.41-.9,10.71,10.71,0,0,1,9.37,5.17,12.12,12.12,0,0,1,10.3-5.17q11.81,0,11.81,14.32V473h-8.11V453.56q0-5-1.22-7.11a4.42,4.42,0,0,0-4.13-2.12,5.27,5.27,0,0,0-4.86,2.51q-1.53,2.51-1.53,8.07V473h-8.11V453.67q0-9.33-5.38-9.33a5.4,5.4,0,0,0-5,2.55q-1.56,2.55-1.56,8V473h-8.07Z"/><path class="cls-1" d="M202.66,438h8.11v35h-8.11v-3.66q-5,4.67-10.73,4.67a15.46,15.46,0,0,1-12-5.24,19.48,19.48,0,0,1-4.7-13.35,18.89,18.89,0,0,1,4.7-13.1,15.16,15.16,0,0,1,11.77-5.24q6.1,0,10.95,5ZM183.5,455.39a12.17,12.17,0,0,0,2.69,8.18,8.81,8.81,0,0,0,7,3.19,9.26,9.26,0,0,0,7.25-3.09,13.28,13.28,0,0,0,0-16.22,9.14,9.14,0,0,0-7.18-3.12,8.93,8.93,0,0,0-7,3.16A11.64,11.64,0,0,0,183.5,455.39Z"/><path class="cls-1" d="M232.63,466.48,216.91,438h9.37L237,458.12l10-20.1h9.12l-27.85,54H219Z"/><path class="cls-1" d="M258.5,455.25a17.37,17.37,0,0,1,5.42-12.88,19.12,19.12,0,0,1,26.49,0,18.72,18.72,0,0,1,0,26.31A18.52,18.52,0,0,1,277,474a17.76,17.76,0,0,1-13.17-5.38A18.1,18.1,0,0,1,258.5,455.25Zm8.25.14a11.79,11.79,0,0,0,2.8,8.29,10.88,10.88,0,0,0,15.14,0,13.12,13.12,0,0,0,0-16.29,10.74,10.74,0,0,0-15.07,0A11.23,11.23,0,0,0,266.76,455.39Z"/><path class="cls-1" d="M304.33,438h8.07v3.12a15.42,15.42,0,0,1,3.95-3.19,9.06,9.06,0,0,1,4.16-.9,13.05,13.05,0,0,1,6.68,2.08l-3.7,7.39a7.72,7.72,0,0,0-4.49-1.65q-6.6,0-6.6,10V473h-8.07Z"/><path class="cls-1" d="M331.71,423.49a5.27,5.27,0,0,1,5.24-5.2,5.09,5.09,0,0,1,3.73,1.54,5,5,0,0,1,1.54,3.7,5.08,5.08,0,0,1-1.54,3.73,5,5,0,0,1-3.7,1.54,5.27,5.27,0,0,1-5.28-5.31ZM341,438v35h-8.07V438Z"/><path class="cls-1" d="M371.55,444l-6.68,3.55q-1.58-3.23-3.91-3.23a2.69,2.69,0,0,0-1.9.74,2.46,2.46,0,0,0-.79,1.88q0,2,4.67,4,6.42,2.76,8.65,5.1a8.73,8.73,0,0,1,2.23,6.28,11,11,0,0,1-3.73,8.47,12.7,12.7,0,0,1-8.76,3.23q-8.79,0-12.45-8.58l6.89-3.19a14.94,14.94,0,0,0,2.19,3.19,5,5,0,0,0,3.52,1.36q4.09,0,4.09-3.73,0-2.15-3.16-4-1.22-.61-2.44-1.18l-2.48-1.18a15.15,15.15,0,0,1-5-3.45,8.49,8.49,0,0,1-1.83-5.63,10,10,0,0,1,3.12-7.54,11,11,0,0,1,7.75-3Q368.28,437.06,371.55,444Z"/><path class="cls-1" d="M389.39,445.56V473h-8.07V445.56h-3.45V438h3.45V425.21h8.07V438h6.28v7.54Z"/><path class="cls-1" d="M427.57,438h8.11v35h-8.11v-3.66q-5,4.67-10.73,4.67a15.46,15.46,0,0,1-12-5.24,19.48,19.48,0,0,1-4.7-13.35,18.89,18.89,0,0,1,4.7-13.1,15.16,15.16,0,0,1,11.77-5.24q6.1,0,10.95,5Zm-19.16,17.37a12.17,12.17,0,0,0,2.69,8.18,8.81,8.81,0,0,0,7,3.19,9.26,9.26,0,0,0,7.25-3.09,13.28,13.28,0,0,0,0-16.22,9.14,9.14,0,0,0-7.18-3.12,8.93,8.93,0,0,0-7,3.16A11.64,11.64,0,0,0,408.41,455.39Z"/><path class="cls-1" d="M421.49,309.11c-3.06-18.8-9.19-36.57-20.48-51.95-18.12-24.65-46.91-32.23-75.32-26.41-2.23.46-4.65,2.71-6.53,1.36s-.49-4.34-1-6.6c-3.16-15.18-6.22-30.39-9.3-45.59-1.64-8.12-1.5-7.67,6.52-9.9,15.1-4.2,27.28.22,37.62,11.32,3.06,3.29,6.26,6.45,9.32,9.74,8.7,9.38,17.07,19.07,26.2,28a24.88,24.88,0,0,0,7.66,5.33c6.46,2.76,15.38.78,19.86-4.42s4.47-10.19.26-17.63c-5.83-10.32-13.67-18.93-22.18-27s-17.84-15.51-29.91-19c4.44-2.6,8.39-4.73,12.15-7.15,27.49-17.71,22.42-46.59,10.69-63.66C377,70.84,361.36,66.74,344.44,69c-21.28,2.84-42.27,7.49-63.11,12.7-2.67.67-3.6.26-3.41-2.79.78-12.8-7.61-23.66-20-26.64-8.4-2-15.64.93-22.45,5.13q-53.71,33.13-107.26,66.51c-7.63,4.74-15.54,9.05-22.64,14.6-7.69,6-9.32,15.49-4.19,23.7,4.72,7.57,13.43,9.7,22.12,5.32,2.91-1.47,5.77-3.07,8.53-4.81q10.88-6.86,21.64-13.91c1.49-1,2.61-1.47,4.32-.19q27,20.22,54,40.28a2.28,2.28,0,0,1,1,3,250.29,250.29,0,0,0-8.67,31.42c-.72,3.62-2.15,4.24-5.59,3.42-12.17-2.9-24.39-5.55-36.62-8.18-13.56-2.91-21.13,1.85-24.49,15.23-.07.26-.08.54-.14.8-5.41,24.15-10.92,48.28-16.22,72.45-4,18.32-8.61,36.52-11.91,55-1.68,9.39,1.42,15.11,10.16,18.77a42.13,42.13,0,0,0,7,2.19c16.19,3.65,32.36,7.4,48.61,10.77,13.75,2.85,27.6,3.71,41.08-1.37,20.15-7.6,32.82-22.64,41-42,2.47-5.88,4.2-12,6.36-19.1,2.57,9.42,4,18,7.42,26.08,9.68,22.67,24.84,39.67,49,46.93,20.92,6.28,41.34,3,60.91-5.66,21-9.32,34.19-25.53,39.77-47.82C424.1,337,423.77,323.08,421.49,309.11Zm-189-11.32c-.59,16.94-4.14,33.16-12.32,48.14-9.38,17.19-23.49,23.75-42.6,20-9.59-1.89-19-4.73-28.72-5.85-2.85-.33-3.54-1.32-2.89-4.22q11.7-51.94,23.14-103.93c.55-2.49,1.41-3.2,4.11-2.53,11.72,2.94,23.63,5,35.11,9.11,16.46,5.82,23.38,19.34,24.16,35.2C232.59,295.07,232.53,296.43,232.53,297.79Zm-9.26-140.74c-1,3.35-1.76,4.24-5,1.83-11.62-8.74-23.08-17.7-35.24-25.7-1.71-1.13-3.24-2-.37-3.92,20-13.15,39.91-26.43,59.85-39.66a6.57,6.57,0,0,1,1.41-.33c-2.9,10.36-6.69,20-9.43,29.89C231,131.85,226.91,144.39,223.27,157.05Zm65.87,89.16a69,69,0,0,0-19.06,22.07c-1.92,3.43-2.74,7.26-4.69,11.89a84.31,84.31,0,0,0-12.3-26.49,41.71,41.71,0,0,0-14.91-13c-1.37-.71-2.33-1.34-1.54-3.43,6.18-16.17,9.4-33.19,13.95-49.83,4.66-17,8.93-34.19,13.39-51.29.23-.87.59-1.7,1.28-3.65,2,10.71,3.64,20.33,5.56,29.89q6.9,34.36,14,68.67c.81,3.89,2.22,7.69,5,10.56C292.09,243.84,291,244.81,289.14,246.22Zm7.15-142c14-2.44,27.82-6.34,42.06-7.74,14.45-1.42,24,7.26,24,21.36.23,8.33-4,13.35-10.24,17-7.65,4.42-16.26,6-24.74,7.92-7.54,1.69-15.27,2.52-22.63,5-1.74.59-2.4,0-2.75-1.74-2.6-12.91-5.28-25.81-7.95-38.71C293.68,105.39,294.46,104.52,296.29,104.2Zm74.38,266.41a41.64,41.64,0,0,1-52-2.91c-13.45-11.88-18.87-27.57-22.16-44.36-2.58-13.16-2.74-26.32,2.36-39,6.85-17,20.26-25.3,38-26.17,16.23-.79,28.57,6.47,37.56,20.21,9.35,14.31,14.64,36.17,14.87,53.15C388.53,346,384.66,360.57,370.67,370.61Z"/></svg>